<svg width="24" height="24" viewBox="0 0 24 24" fill="none" xmlns="http://www.w3.org/2000/svg">
<path fill-rule="evenodd" clip-rule="evenodd" d="M22.5 14.2656C22.5 13.5961 22.3626 12.9584 22.1145 12.3805L22.1298 12.3754L19.597 7.46401C19.0508 6.02335 17.6713 5 16.0551 5C13.9606 5 12.7804 7.07725 12.7804 9.19767C12.7804 9.30157 12.7724 9.09577 12.7804 9.19767H11.2196C11.2276 9.09577 11.2196 9.30157 11.2196 9.19767C11.2196 7.07725 10.0394 5 7.94488 5C6.32866 5 4.94919 6.02335 4.403 7.46402L1.87018 12.3754L1.88546 12.3806C1.63744 12.9584 1.5 13.5961 1.5 14.2656C1.5 16.8803 3.59381 19 6.17665 19C8.38484 19 10.2705 17.4629 10.7612 15.3796L11 12H13L13.2388 15.3796C13.7295 17.4629 15.6152 19 17.8233 19C20.4062 19 22.5 16.8803 22.5 14.2656ZM3.33835 14.2656C3.33835 12.6787 4.60909 11.3923 6.17664 11.3923C7.74418 11.3923 9.01493 12.6787 9.01493 14.2656C9.01493 15.8525 7.74418 17.1389 6.17664 17.1389C4.60909 17.1389 3.33835 15.8525 3.33835 14.2656ZM14.9851 14.2656C14.9851 12.6787 16.2558 11.3923 17.8234 11.3923C19.3909 11.3923 20.6616 12.6787 20.6616 14.2656C20.6616 15.8525 19.3909 17.1389 17.8234 17.1389C16.2558 17.1389 14.9851 15.8525 14.9851 14.2656Z" fill="#232729"/>
</svg>
