<svg width="101" height="100" viewBox="0 0 101 100" fill="none" xmlns="http://www.w3.org/2000/svg">
<path d="M93.4272 31.8711V68.0213H26.291V85.3922H99.9999V31.8711H93.4272Z" fill="#D6DADC"/>
<path d="M86.1503 23.4199H12.4414V76.941H86.1503V23.4199Z" fill="white"/>
<path d="M19.9531 14.5V23.4202H86.1503V68.0211H93.662V14.5H19.9531Z" fill="#1952B3"/>
<path d="M19.2488 26.7065H17.3708V28.5845H19.2488V26.7065Z" fill="#FF5100"/>
<path d="M22.5352 26.7065H20.6572V28.5845H22.5352V26.7065Z" fill="#FF5100"/>
<path d="M25.8215 26.7065H23.9436V28.5845H25.8215V26.7065Z" fill="#FF5100"/>
<path d="M62.4413 37.9741H20.1877V52.0586H62.4413V37.9741Z" fill="#F4F5F6"/>
<path d="M78.169 37.9741H65.4929V68.96H78.169V37.9741Z" fill="#F4F5F6"/>
<path d="M62.4413 54.8755H20.1877V68.96H62.4413V54.8755Z" fill="#F4F5F6"/>
<path fill-rule="evenodd" clip-rule="evenodd" d="M88.2629 22.0117V78.8192H20.6572V77.8803H11.2676L11.2676 22.9507H63.1455V22.0117H88.2629ZM13.1455 76.0023V32.3404H81.6901V30.4624H13.1455V24.8286H63.1455V25.7676H84.507V75.0634H20.6572V76.0023H13.1455Z" fill="black"/>
<path d="M4.75179 50.6504L3.75587 51.6463L7.07562 54.9661L8.07154 53.9701L4.75179 50.6504Z" fill="#232729"/>
<path d="M8.03818 70.0131L7.04225 69.0172L3.7225 72.337L4.71843 73.3329L8.03818 70.0131Z" fill="#232729"/>
<path d="M1.23131e-07 61.036L0 62.4444L5.16432 62.4444L5.16432 61.036L1.23131e-07 61.036Z" fill="#232729"/>
</svg>
