<svg width="96" height="96" viewBox="0 0 96 96" fill="none" xmlns="http://www.w3.org/2000/svg">
  <!-- Blue back window -->
  <rect x="30" y="6" width="60" height="48" rx="3" fill="#2066DF"/>
  <rect x="30" y="6" width="60" height="9" rx="3" fill="#1A54B8"/>
  <rect x="30" y="10" width="60" height="5" fill="#1A54B8"/>
  <circle cx="38" cy="11" r="1.5" fill="#5B8FE8"/>
  <circle cx="44" cy="11" r="1.5" fill="#5B8FE8"/>
  <circle cx="50" cy="11" r="1.5" fill="#5B8FE8"/>
  <!-- Gray shadow window (middle) -->
  <rect x="22" y="16" width="60" height="48" rx="3" fill="#C8CDD0"/>
  <!-- White front window -->
  <rect x="14" y="26" width="60" height="48" rx="3" fill="white" stroke="#D1D5DB" stroke-width="0.5"/>
  <rect x="14" y="26" width="60" height="9" rx="3" fill="#F3F4F6"/>
  <rect x="14" y="30" width="60" height="5" fill="#F3F4F6"/>
  <circle cx="22" cy="30" r="1.5" fill="#D1D5DB"/>
  <circle cx="28" cy="30" r="1.5" fill="#D1D5DB"/>
  <circle cx="34" cy="30" r="1.5" fill="#D1D5DB"/>
  <!-- Content lines -->
  <rect x="20" y="42" width="32" height="3.5" rx="1.75" fill="#E5E7EB"/>
  <rect x="20" y="50" width="44" height="3.5" rx="1.75" fill="#E5E7EB"/>
  <rect x="20" y="58" width="38" height="3.5" rx="1.75" fill="#E5E7EB"/>
  <rect x="20" y="66" width="28" height="3.5" rx="1.75" fill="#E5E7EB"/>
  <!-- Orange plus symbol (bottom-left) -->
  <rect x="4" y="57" width="20" height="5" rx="2.5" fill="#F26522"/>
  <rect x="10" y="51" width="5" height="20" rx="2.5" fill="#F26522"/>
</svg>
