<svg preserveAspectRatio="none" width="100%" height="100%" overflow="visible" style="display: block;" viewBox="0 0 12.8074 12.8074" fill="none" xmlns="http://www.w3.org/2000/svg">
<path id="Vector" fill-rule="evenodd" clip-rule="evenodd" d="M9.17158 7.75736C9.69506 6.96686 10 6.01865 10 5C10 2.23858 7.76142 0 5 0C2.23858 0 0 2.23858 0 5C0 7.76142 2.23858 10 5 10C6.01865 10 6.96686 9.69506 7.75736 9.17158L11.3932 12.8074L12.8074 11.3932L9.17158 7.75736ZM5 8C6.65685 8 8 6.65685 8 5C8 3.34315 6.65685 2 5 2C3.34315 2 2 3.34315 2 5C2 6.65685 3.34315 8 5 8Z" fill="var(--fill-0, #232729)"/>
</svg>
