<svg width="24" height="24" viewBox="0 0 24 24" fill="none" xmlns="http://www.w3.org/2000/svg">
<path d="M18.0094 15.783C19.3304 14.755 20.3706 13.3959 21 11.8343C19.5845 8.32227 16.0909 5.83427 12 5.83427C10.8205 5.83427 9.69071 6.04108 8.64603 6.41963L10.3955 8.16908C10.8866 7.95376 11.4294 7.83427 12 7.83427C14.2091 7.83427 16 9.62513 16 11.8343C16 12.4049 15.8805 12.9476 15.6652 13.4388L18.0094 15.783Z" fill="black" fill-opacity="0.75"/>
<path d="M14.4671 12.2407C14.4888 12.1084 14.5 11.9727 14.5 11.8343C14.5 10.4536 13.3807 9.33427 12 9.33427C11.8616 9.33427 11.7258 9.34551 11.5935 9.36714L14.4671 12.2407Z" fill="black" fill-opacity="0.75"/>
<path fill-rule="evenodd" clip-rule="evenodd" d="M4.10508 4L3.10511 4.99997L5.99064 7.88549C4.66966 8.91349 3.62939 10.2726 3 11.8343C4.41545 15.3463 7.90909 17.8343 12 17.8343C13.1795 17.8343 14.3093 17.6274 15.354 17.2489L18.1011 19.996L19.1011 18.996L4.10508 4ZM12 14.3343C12.1384 14.3343 12.2742 14.323 12.4065 14.3014L13.6046 15.4994C13.1134 15.7148 12.5707 15.8343 12 15.8343C9.79086 15.8343 8 14.0434 8 11.8343C8 11.2636 8.1195 10.7209 8.33484 10.2297L9.53289 11.4277C9.51125 11.56 9.5 11.6958 9.5 11.8343C9.5 13.215 10.6193 14.3343 12 14.3343Z" fill="black" fill-opacity="0.75"/>
</svg>
