<svg width="24" height="24" viewBox="0 0 24 24" fill="none" xmlns="http://www.w3.org/2000/svg">
<path d="M6.16027 22.6986L3.875 20.2381V6L8.44554 6L8.44555 20.2381L6.16027 22.6986Z" fill="#232729"/>
<path d="M7.45586 1C8.00276 1 8.44642 1.47674 8.4475 2.06559L8.45164 4.32664H3.88109L3.87696 2.0698C3.87588 1.47931 4.32017 1 4.8686 1H7.45586Z" fill="#232729"/>
<path d="M19.6656 18.1175C19.6656 19.4 18.6239 20.4405 17.3378 20.4405H11.0522L8.8419 22.6467H17.3378C19.8432 22.6467 21.875 20.6193 21.875 18.1175C21.875 15.6157 19.8432 13.5883 17.3378 13.5883H15.0495C14.3954 13.5883 13.8659 13.0591 13.8659 12.4073C13.8659 11.7555 14.3954 11.2264 15.0495 11.2264H16.7657C18.9552 11.2264 20.7308 9.45467 20.7308 7.2682V4.45205H18.5215V7.2682C18.5215 8.23536 17.7358 9.02018 16.7657 9.02018H15.0495C13.176 9.02018 11.6565 10.5362 11.6565 12.4073C11.6565 14.2784 13.176 15.7945 15.0495 15.7945H17.3378C18.6239 15.7945 19.6656 16.835 19.6656 18.1175Z" fill="#232729"/>
</svg>
