<svg width="24" height="24" viewBox="0 0 24 24" fill="none" xmlns="http://www.w3.org/2000/svg">
<path fill-rule="evenodd" clip-rule="evenodd" d="M14.5792 16.1476C15.164 15.6399 15.9278 15.3332 16.7631 15.3332C18.6041 15.3332 20.0965 16.8247 20.0965 18.6667C20.0965 20.5067 18.6041 22.0001 16.7631 22.0001C14.9211 22.0001 13.4296 20.5067 13.4296 18.6667C13.4296 18.3505 13.4734 18.0438 13.5563 17.7543L8.47043 14.518C7.88565 15.0256 7.12182 15.3332 6.28656 15.3332C4.4446 15.3332 2.95312 13.8399 2.95312 11.9998C2.95312 10.1579 4.4446 8.66638 6.28656 8.66638C7.16849 8.66638 7.97042 9.00829 8.56663 9.56736L14.4754 6.11964C14.4144 5.86725 14.382 5.60343 14.382 5.33295C14.382 3.49099 15.8735 1.99951 17.7155 1.99951C19.5565 1.99951 21.0489 3.49099 21.0489 5.33295C21.0489 7.173 19.5565 8.66638 17.7155 8.66638C16.8335 8.66638 16.0316 8.32351 15.4354 7.76445L9.5257 11.2112C9.58761 11.4646 9.61999 11.7274 9.61999 11.9998C9.61999 12.316 9.57523 12.6217 9.49332 12.9113L14.5792 16.1476ZM17.7157 6.76156C18.5043 6.76156 19.1443 6.12154 19.1443 5.33295C19.1443 4.5434 18.5043 3.90433 17.7157 3.90433C16.9262 3.90433 16.2871 4.5434 16.2871 5.33295C16.2871 6.12154 16.9262 6.76156 17.7157 6.76156ZM6.67348 13.3751C7.27445 13.2056 7.71542 12.6541 7.71542 11.9998C7.71542 11.3646 7.30017 10.8255 6.72682 10.6398C6.58776 10.595 6.44014 10.5712 6.2868 10.5712C5.49726 10.5712 4.85819 11.2103 4.85819 11.9998C4.85819 12.7884 5.49726 13.4284 6.2868 13.4284C6.42109 13.4284 6.55062 13.4094 6.67348 13.3751ZM16.7633 20.0953C17.5519 20.0953 18.1919 19.4553 18.1919 18.6667C18.1919 17.8771 17.5519 17.2381 16.7633 17.2381C15.9738 17.2381 15.3347 17.8771 15.3347 18.6667C15.3347 19.4553 15.9738 20.0953 16.7633 20.0953Z" fill="#232729"/>
</svg>
