<svg width="33" height="33" viewBox="0 0 33 33" fill="none" xmlns="http://www.w3.org/2000/svg">
<g clip-path="url(#clip0_4704_3471)">
<g filter="url(#filter0_d_4704_3471)">
<path d="M5.96439 14.3301L23.1021 12.0134L12.9644 26.4544L10.7852 19.1245L5.96439 14.3301Z" fill="#2066DF"/>
<path d="M23.9568 11.4939C24.1631 11.8333 24.1492 12.263 23.921 12.5881L13.7834 27.0292C13.563 27.3431 13.1821 27.5032 12.8036 27.4415C12.4251 27.3798 12.1151 27.107 12.0058 26.7395L9.90093 19.6542L5.25967 15.0392C4.98983 14.7708 4.89485 14.3724 5.01599 14.0116C5.13722 13.6508 5.45379 13.3902 5.83098 13.3392L22.9686 11.0225L23.1155 11.0133C23.4563 11.0178 23.7762 11.197 23.9568 11.4939Z" stroke="white" stroke-width="2" stroke-linejoin="round"/>
</g>
</g>
<defs>
<filter id="filter0_d_4704_3471" x="1.46436" y="8.51343" width="26.1377" height="23.4412" filterUnits="userSpaceOnUse" color-interpolation-filters="sRGB">
<feFlood flood-opacity="0" result="BackgroundImageFix"/>
<feColorMatrix in="SourceAlpha" type="matrix" values="0 0 0 0 0 0 0 0 0 0 0 0 0 0 0 0 0 0 127 0" result="hardAlpha"/>
<feOffset dy="1"/>
<feGaussianBlur stdDeviation="1.25"/>
<feColorMatrix type="matrix" values="0 0 0 0 0 0 0 0 0 0 0 0 0 0 0 0 0 0 0.48 0"/>
<feBlend mode="normal" in2="BackgroundImageFix" result="effect1_dropShadow_4704_3471"/>
<feBlend mode="normal" in="SourceGraphic" in2="effect1_dropShadow_4704_3471" result="shape"/>
</filter>
<clipPath id="clip0_4704_3471">
<rect width="24" height="24" fill="white" transform="translate(20.7847) rotate(60)"/>
</clipPath>
</defs>
</svg>
