<svg width="24" height="24" viewBox="0 0 24 24" fill="none" xmlns="http://www.w3.org/2000/svg">
<circle cx="12" cy="12" r="3" stroke="#333333" stroke-width="2"/>
<path d="M19.9371 11C19.7163 9.247 18.9193 7.60577 17.6566 6.34315C16.1563 4.84286 14.1215 4 11.9998 4C9.87805 4 7.84322 4.84285 6.34293 6.34315C5.0803 7.60577 4.28332 9.247 4.0625 11" stroke="#333333" stroke-width="2"/>
<path d="M20.3818 15.2783C20.6515 14.589 20.8364 13.8658 20.9297 13.125L18.9453 12.875C18.8727 13.4512 18.7283 14.0135 18.5186 14.5498L20.3818 15.2783ZM7.83008 17.6221C7.55568 17.4186 7.29435 17.1947 7.0498 16.9502C6.63736 16.5377 6.28209 16.0785 5.98828 15.5859L4.27051 16.6104C4.64831 17.2437 5.10554 17.8341 5.63574 18.3643C5.95009 18.6786 6.28578 18.9668 6.63867 19.2285L7.83008 17.6221ZM17.3613 19.2285C17.714 18.9669 18.0491 18.6784 18.3633 18.3643C18.8935 17.8341 19.3517 17.2437 19.7295 16.6104L18.8701 16.0986L18.0117 15.5859C17.7179 16.0785 17.3617 16.5377 16.9492 16.9502C16.7048 17.1945 16.4441 17.4187 16.1699 17.6221L17.3613 19.2285ZM9.8125 20.7305L10.2988 18.79C9.63117 18.6228 8.99176 18.3577 8.40137 18.0039L7.37305 19.7197C8.13206 20.1746 8.95415 20.5154 9.8125 20.7305ZM14.1865 20.7305C15.0451 20.5154 15.8678 20.1747 16.627 19.7197L16.1123 18.8623L15.5986 18.0039C15.0082 18.3578 14.368 18.6227 13.7002 18.79L14.1865 20.7305ZM12 21C12.4445 21 12.8857 20.9668 13.3203 20.9023L13.0273 18.9238C12.6894 18.974 12.3458 19 12 19C11.6541 19 11.3107 18.974 10.9727 18.9238L10.6797 20.9023C11.1142 20.9668 11.5555 21 12 21Z" fill="#333333"/>
<path d="M7.05169 9.97003L3.44434 12.0527L1.36163 8.44538" stroke="#333333" stroke-width="2"/>
</svg>
