<svg width="24" height="24" viewBox="0 0 24 24" fill="none" xmlns="http://www.w3.org/2000/svg">
<path d="M6 4C8.20914 4 10 5.79086 10 8C10 8.34183 9.95665 8.67352 9.87598 8.99023L13.3564 11L18.6377 7.95117C20.0725 7.12281 21.9068 7.61423 22.7354 9.04883L16.3564 12.7314L22.7363 16.415C21.9079 17.8499 20.0726 18.3411 18.6377 17.5127L13.3564 14.4629L9.95801 16.4248C9.98507 16.6127 10 16.8046 10 17C10 19.2091 8.20914 21 6 21C3.79086 21 2 19.2091 2 17C2 14.7909 3.79086 13 6 13C6.9211 13 7.76914 13.3118 8.44531 13.835L10.3574 12.7314L8.08008 11.416C7.47388 11.7859 6.76211 12 6 12C3.79086 12 2 10.2091 2 8C2 5.79086 3.79086 4 6 4ZM6 15C4.89543 15 4 15.8954 4 17C4 18.1046 4.89543 19 6 19C7.10457 19 8 18.1046 8 17C8 15.8954 7.10457 15 6 15ZM6 6C4.89543 6 4 6.89543 4 8C4 9.10457 4.89543 10 6 10C7.10457 10 8 9.10457 8 8C8 6.89543 7.10457 6 6 6Z" fill="#232729"/>
</svg>
