<svg width="24" height="24" viewBox="0 0 24 24" fill="none" xmlns="http://www.w3.org/2000/svg">
<path d="M20.998 5.67773C22.2574 7.46677 23 9.64592 23 12C23 18.0751 18.0751 23 12 23C11.8705 23 11.7417 22.9937 11.6133 22.9893C11.4059 22.9757 11.1362 22.9535 10.8252 22.9102C10.0607 22.8037 9.07528 22.5858 8.13477 22.1494C7.19674 21.7141 6.3422 21.0798 5.76758 20.1582C5.20032 19.2483 4.84857 17.9669 5.06543 16.124C5.35068 13.7006 6.14767 12.1254 7.08398 11.0898C7.02968 11.385 7 11.6891 7 12C7 14.7402 9.20436 16.964 11.9365 16.998C11.9386 16.9983 11.9409 16.9989 11.9434 16.999C11.95 16.9994 11.9587 16.9995 11.9688 17C11.9887 17.001 12.0152 17.0019 12.0479 17.0029C12.1137 17.005 12.2054 17.0066 12.3184 17.0049C12.5439 17.0014 12.8588 16.9858 13.2363 16.9375C13.9888 16.8412 15.0097 16.6133 16.0723 16.082C18.256 14.9901 20.4547 12.6932 20.9932 8.11719C21.0975 7.23054 21.0923 6.41911 20.998 5.67773Z" fill="#232729"/>
<path d="M12.2969 1.00684C12.3083 1.00735 12.32 1.00818 12.332 1.00879C12.5506 1.01987 12.868 1.04487 13.2471 1.09766C14.0117 1.20416 14.9969 1.42188 15.9375 1.8584C16.8756 2.29379 17.7301 2.92792 18.3047 3.84961C18.8719 4.7595 19.2237 6.04087 19.0068 7.88379C18.7124 10.3852 17.8718 11.9824 16.8965 13.0156C16.9642 12.6877 17 12.348 17 12C17 9.23858 14.7614 7 12 7C11.9533 7 11.9068 7.00166 11.8604 7.00293C11.8274 7.00286 11.7918 7.00236 11.7539 7.00293C11.5284 7.00637 11.2132 7.02206 10.8359 7.07031C10.0836 7.16658 9.06241 7.39462 8 7.92578C5.81625 9.01773 3.61761 11.3146 3.0791 15.8906C2.96949 16.8222 2.97816 17.6709 3.08691 18.4424C1.7756 16.6313 1 14.4069 1 12C1 5.92487 5.92487 1 12 1C12.0993 1 12.1982 1.00422 12.2969 1.00684Z" fill="#232729"/>
</svg>
