<svg preserveAspectRatio="none" width="100%" height="100%" overflow="visible" style="display: block;" viewBox="0 0 21 21" fill="none" xmlns="http://www.w3.org/2000/svg">
<path id="Vector" fill-rule="evenodd" clip-rule="evenodd" d="M21 10.5C21 16.299 16.299 21 10.5 21C4.70101 21 0 16.299 0 10.5C0 4.70101 4.70101 0 10.5 0C16.299 0 21 4.70101 21 10.5ZM9.02626 6.45937C8.78076 6.86033 8.69159 7.41994 8.69159 7.87657H6C6 7.16165 6.12111 5.9859 6.75879 4.94439C7.45769 3.80289 8.67196 3 10.4579 3C12.0589 3 13.2796 3.48286 14.0728 4.41817C14.8382 5.32071 15 6.40665 15 7.17364C15 9.33408 13.5595 10.6455 12.3423 11.2536C12.0724 11.3885 11.881 11.5989 11.7617 11.7697V12.75H9.07009V11.6798C9.07009 11.3171 9.13684 10.8478 9.40301 10.3984C9.66199 9.96124 10.2165 9.19899 11.181 8.71708C11.8984 8.35866 12.3084 7.82492 12.3084 7.17364C12.3084 6.76908 12.2179 6.47113 12.0581 6.28266C11.926 6.12697 11.5486 5.81172 10.4579 5.81172C9.55234 5.81172 9.21053 6.15841 9.02626 6.45937ZM10.454 18.0059C11.425 18.0059 12.2121 17.2187 12.2121 16.2477C12.2121 15.2767 11.425 14.4895 10.454 14.4895C9.48295 14.4895 8.69579 15.2767 8.69579 16.2477C8.69579 17.2187 9.48295 18.0059 10.454 18.0059Z" fill="var(--fill-0, white)"/>
</svg>
